# xmcd CD database file
#
# Track frame offsets:
#	150
#	15955
#	29862
#	43235
#	61665
#	80715
#	98650
#	121610
#	138852
#	160222
#	177525
#	194677
#	213690
#	231100
#	249220
#	268297
#	286087
#	302997
#	321047
#	340462
#
# Disc length: 4739 seconds
#
# Revision: 6
# Processed by: cddbd v1.5.2PL0 Copyright (c) Steve Scherf et al.
# Submitted via: CDex 1.70beta2
#
DISCID=24128114
DTITLE=Chicago - The Very Best of Chicago Only the Beginning Disc 2
DYEAR=2002
DGENRE=Rock
TTITLE0=追憶の日々
TTITLE1=朝もやの二人
TTITLE2=シカゴへ帰りたい
TTITLE3=アライブ・アゲイン
TTITLE4=ノー・テル・ラヴァー
TTITLE5=ラヴ・ミー・トゥモロウ
TTITLE6=素直になれなくて～ゲット・アウェイ
TTITLE7=ステイ・ザ・ナイト
TTITLE8=忘れ得ぬ君に
TTITLE9=君こそすべて
TTITLE10=いかした彼女
TTITLE11=スティル・ラヴ・ミー
TTITLE12=フェイスフル
TTITLE13=ルック・アウェイ
TTITLE14=ホワット・カインド・オブ・マン
TTITLE15=リヴ・ウィズアウト・ユア・ラヴ
TTITLE16=ウィ･キャン・ラスト・フォーエヴァー
TTITLE17=ユー・アー・ノット・アローン
TTITLE18=チェイシン・ザ・ウィンド
TTITLE19=シング・シング・シング（ウィズ・ジプシー・キングス）
EXTD=YEAR: 2002
EXTT0=
EXTT1=
EXTT2=
EXTT3=
EXTT4=
EXTT5=
EXTT6=
EXTT7=
EXTT8=
EXTT9=
EXTT10=
EXTT11=
EXTT12=
EXTT13=
EXTT14=
EXTT15=
EXTT16=
EXTT17=
EXTT18=
EXTT19=
PLAYORDER=
